<svg version="1" xmlns="http://www.w3.org/2000/svg" width="666.667" height="666.667" viewBox="0 0 500.000000 500.000000"><path d="M259 97c-.7.5.2 1 2.4 1.4 6.6 1.2 21.4 6.5 30.8 11 15.2 7.2 30.2 18.9 41.2 32 21.9 26.2 37.2 64.5 40.2 100.2 1.6 18.8.5 49.3-1.9 53.9l-1.5 3-.6-2.5c-5.9-26.2-9.8-39.2-15.7-51.9-4.7-10-13-21-16.1-21.1-.3 0 .9 3.9 2.8 8.6 4.8 12.4 9.4 28.5 11.8 41.9 2.7 14.8 2.8 44.4.3 58.5-3.3 17.9-10 36.2-19.3 53-5.7 10.2-4.1 11.4 3.9 3 15.3-16.1 27.8-33 37.5-51.1 7.2-13.1 15.7-36.5 17.8-48.6.2-1.3.6-3.5.9-5.1 3.6-20.4 2.3-47.2-3.5-70.3-15.5-62.1-53.1-100.6-112-114.5-7.5-1.8-17.2-2.5-19-1.4zM178.8 100.4c-2.1.8-3.8 1.2-3.8.9 0-1-15.8 8.1-22 12.7-14.7 10.9-29.8 29.5-38.5 47.4-7 14.3-9.5 23.5-10 36.1-.3 8.7 1 21.3 2.2 20.2.2-.3 1.3-4.2 2.4-8.8 7.2-30.5 24.8-63.5 44.8-83.8 9.6-9.8 25.9-21.7 34.2-25 2.1-.9 2-1-1.6-1-2.2 0-5.7.6-7.7 1.3z"/><path d="M197.1 135.1c0 4.6.5 10.4 1 12.9s1.1 5.8 1.3 7.3c1.7 10.2 8.2 25.1 16.4 37.5 9.9 14.9 20.9 26.8 49.2 53.2 35.5 33 47.8 48.2 57 70.2 1.8 4.3 3.7 7.8 4.2 7.8 2.3 0-1.4-22.2-5.6-34.7-8.8-25.9-21.4-41.1-55.6-66.7-24.5-18.3-33.6-26.6-42.4-38.3-10.8-14.4-15.1-23.8-20-43.7-3.9-15.7-5.8-17.5-5.5-5.5zM189.3 169.1c-1.2 1.2.5 10.4 4.3 22.9 6.5 21.2 22.7 46.5 54.4 84.5 25.9 31 41.1 55.8 44.6 72.6 3 14.4-.4 25.9-13.7 45.5-2.8 4.1-4.9 7.8-4.6 8 .7.7 16.9-7.6 24.1-12.5 32.8-21.9 33.5-48.3 2.2-87.1-7.3-9-28.9-30.9-40.6-41.1-31.8-27.6-56.4-60.2-64.9-86.1-2.2-6.6-3.9-8.6-5.8-6.7zM152.1 200.8c-2.3.8-25.4 24.2-29.9 30.3-9.3 12.4-14.1 27.7-13.6 42.9.3 9.6.6 11.5 3.6 21.8 2.4 8.2 3.3 9.5 3.4 4.9.5-23.8 8.9-46.4 30.8-82.9 6-10.1 8.5-15.1 7.9-16.1-.4-.8-1.4-1.2-2.2-.9zM159.8 232.7c-14.4 19.2-25.9 40.9-30.5 58-3.2 12.2-3.7 28.1-1 38.3 5 18.6 17.5 35.4 37.6 50.6 6.9 5.1 16.9 11 17.6 10.2.7-.6-11.6-16.2-16.6-21.2-10.5-10.3-18.6-24.3-22.5-38.6-1.9-6.9-2.6-28.8-1.2-38.5 2.1-15.1 8-31.8 20.5-58.4 2.4-5.1 4.2-9.5 4-9.8-.3-.2-3.8 4-7.9 9.4z"/></svg>